<?xml version="1.0" encoding="utf-8"?>
<!-- Generator: Adobe Illustrator 25.1.0, SVG Export Plug-In . SVG Version: 6.00 Build 0)  -->
<svg version="1.1" id="Layer_1" xmlns="http://www.w3.org/2000/svg" xmlns:xlink="http://www.w3.org/1999/xlink" x="0px" y="0px"
	 viewBox="0 0 1000 1000" style="enable-background:new 0 0 1000 1000;" xml:space="preserve">
<style type="text/css">
	.st0{clip-path:url(#SVGID_2_);fill:url(#SVGID_3_);stroke:#FFFFFF;stroke-miterlimit:10;}
	.st1{clip-path:url(#SVGID_5_);fill:url(#SVGID_6_);stroke:#FFFFFF;stroke-miterlimit:10;}
	.st2{clip-path:url(#SVGID_8_);fill:url(#SVGID_9_);stroke:#FFFFFF;stroke-miterlimit:10;}
</style>
<g>
	<defs>
		<polygon id="SVGID_1_" points="831.2,898 466.8,532.6 532.8,466.4 897.3,831.8 		"/>
	</defs>
	<clipPath id="SVGID_2_">
		<use xlink:href="#SVGID_1_"  style="overflow:visible;"/>
	</clipPath>
	<linearGradient id="SVGID_3_" gradientUnits="userSpaceOnUse" x1="-3.367313e-08" y1="3.367131e-08" x2="1000" y2="1000">
		<stop  offset="0" style="stop-color:#DCA7E7"/>
		<stop  offset="1" style="stop-color:#A3F1FF"/>
	</linearGradient>
	<rect class="st0" width="1000" height="1000"/>
</g>
<g>
	<defs>
		<path id="SVGID_4_" d="M499.8,806.2c-169,0-306.5-137.9-306.5-307.3c0-156.2,116.9-285.5,267.6-304.7V99.8
			c-202.4,19.7-361,191.1-361,399c0,221.1,179.4,401,400,401c66.8,0.1,132.4-16.7,191-48.8l-69.8-70
			C582.8,797.7,541.5,806.2,499.8,806.2z"/>
	</defs>
	<clipPath id="SVGID_5_">
		<use xlink:href="#SVGID_4_"  style="overflow:visible;"/>
	</clipPath>
	<linearGradient id="SVGID_6_" gradientUnits="userSpaceOnUse" x1="-3.367313e-08" y1="3.367131e-08" x2="1000" y2="1000">
		<stop  offset="0" style="stop-color:#DCA7E7"/>
		<stop  offset="1" style="stop-color:#A3F1FF"/>
	</linearGradient>
	<rect class="st1" width="1000" height="1000"/>
</g>
<g>
	<defs>
		<path id="SVGID_7_" d="M538.7,99.8v94.3c150.7,19.2,267.6,148.5,267.6,304.7c0,42.1-8.6,83.7-25.4,122.3l69.8,69.9
			c32.3-58.9,49.2-125.1,49.1-192.3C899.8,291,741.1,119.5,538.7,99.8z"/>
	</defs>
	<clipPath id="SVGID_8_">
		<use xlink:href="#SVGID_7_"  style="overflow:visible;"/>
	</clipPath>
	<linearGradient id="SVGID_9_" gradientUnits="userSpaceOnUse" x1="-3.367313e-08" y1="3.367131e-08" x2="1000" y2="1000">
		<stop  offset="0" style="stop-color:#DCA7E7"/>
		<stop  offset="1" style="stop-color:#A3F1FF"/>
	</linearGradient>
	<rect class="st2" width="1000" height="1000"/>
</g>
</svg>
