<svg id="Layer_1" data-name="Layer 1" xmlns="http://www.w3.org/2000/svg" xmlns:xlink="http://www.w3.org/1999/xlink" viewBox="0 0 1000 1000"><defs><style>.cls-1{fill:none;}.cls-2{clip-path:url(#clip-path);}.cls-3{fill:url(#linear-gradient);}</style><clipPath id="clip-path"><path class="cls-1" d="M831.24,898,466.75,532.63l66.08-66.24L897.32,831.76ZM499.79,806.16c-169,0-306.54-137.85-306.54-307.28,0-156.21,116.91-285.47,267.6-304.72V99.84c-202.35,19.69-361,191.12-361,399,0,221.09,179.43,401,400,401a396.69,396.69,0,0,0,191-48.76l-69.84-70A304,304,0,0,1,499.79,806.16ZM538.73,99.84v94.32c150.7,19.25,267.61,148.51,267.61,304.72a306,306,0,0,1-25.42,122.35l69.77,69.94A399.24,399.24,0,0,0,899.8,498.88C899.8,291,741.09,119.53,538.73,99.84Z"/></clipPath><linearGradient id="linear-gradient" x1="1.15" y1="999.64" x2="0.53" y2="999.09" gradientTransform="matrix(0, 1920, 1080, 0, -1078816.61, -1113.57)" gradientUnits="userSpaceOnUse"><stop offset="0" stop-color="#78d6f3"/><stop offset="1" stop-color="#e985ad"/></linearGradient></defs><g class="cls-2"><rect id="gradient" class="cls-3" x="100" y="100" width="800" height="800"/></g></svg>